<svg xmlns="http://www.w3.org/2000/svg" width="900" height="700" viewBox="0 0 900 700" role="img" aria-label=">AC4><>5G=0O <0H8=0">
  <defs>
    <linearGradient id="bg" x1="0" y1="0" x2="1" y2="1">
      <stop offset="0" stop-color="#e0f2fe" />
      <stop offset="1" stop-color="#f1f5f9" />
    </linearGradient>
    <linearGradient id="steel" x1="0" y1="0" x2="0" y2="1">
      <stop offset="0" stop-color="#ffffff" />
      <stop offset="1" stop-color="#e2e8f0" />
    </linearGradient>
  </defs>
  <rect width="900" height="700" rx="48" fill="url(#bg)" />
  <g transform="translate(235 105)">
    <rect x="0" y="0" width="430" height="500" rx="44" fill="url(#steel)" stroke="#cbd5e1" stroke-width="6"/>
    <rect x="36" y="40" width="358" height="64" rx="18" fill="#0f172a" opacity="0.9"/>
    <circle cx="86" cy="72" r="9" fill="#60a5fa" opacity="0.85"/>
    <circle cx="118" cy="72" r="9" fill="#60a5fa" opacity="0.55"/>
    <rect x="36" y="132" width="358" height="332" rx="26" fill="#f8fafc" stroke="#e2e8f0" stroke-width="4"/>
    <rect x="64" y="170" width="302" height="72" rx="18" fill="#e2e8f0"/>
    <rect x="64" y="264" width="302" height="72" rx="18" fill="#e2e8f0"/>
    <rect x="64" y="358" width="302" height="72" rx="18" fill="#e2e8f0"/>
    <g opacity="0.65">
      <circle cx="124" cy="206" r="14" fill="#22c55e"/>
      <circle cx="170" cy="206" r="14" fill="#f59e0b"/>
      <circle cx="216" cy="206" r="14" fill="#ef4444"/>
    </g>
  </g>
  <text x="60" y="625" font-family="system-ui,Segoe UI,Arial" font-size="36" fill="#0f172a" opacity="0.85">
    AquaWash 60  D>B> 1
  </text>
</svg>

